<svg xmlns="http://www.w3.org/2000/svg" viewBox="0 0 1182.5500000000002 628.75" width="1182.5500000000002" height="628.75"><g transform="translate(134.5, 58.90000000000006)"><rect x="0" y="0" width="380" height="170" style="fill:#fefdfe"></rect><rect x="0" y="0" width="380" height="25" style="fill:#e6eaf2"></rect><text x="10" y="14" style="font-family:&#x27;Arial&#x27;, sans-serif;font-size:14px;fill:#202020">User</text><g transform="translate(0, 15)"><g transform="translate(10, 25)"><g transform="translate(0, 0)"><clipPath id="clip_54739a66-63aa-4008-b1c3-36c57972cc8a"><rect x="21" y="0" width="191" height="17"></rect></clipPath><text x="21" y="14" style="fill:#202020;font-family:Arial;font-size:14px" clip-path="url(#clip_54739a66-63aa-4008-b1c3-36c57972cc8a)">_id</text></g><text x="233" y="14" style="fill:#202020;font-family:Arial;font-size:14px" width="80">objectId</text><text x="334" y="14" width="22" height="14" style="fill:#202020;font-family:Arial;font-size:14px">NN</text></g><g transform="translate(10, 49)"><g transform="translate(0, 0)"><clipPath id="clip_e71f9fd5-11fd-4544-9733-c325cf3a1bf6"><rect x="21" y="0" width="191" height="17"></rect></clipPath><text x="21" y="14" style="fill:#202020;font-family:Arial;font-size:14px" clip-path="url(#clip_e71f9fd5-11fd-4544-9733-c325cf3a1bf6)">name</text></g><text x="233" y="14" style="fill:#202020;font-family:Arial;font-size:14px" width="80">string</text><text x="334" y="14" width="22" height="14" style="fill:#202020;font-family:Arial;font-size:14px">NN</text></g><g transform="translate(10, 73)"><g transform="translate(0, 0)"><clipPath id="clip_f795ea6c-fdbc-45cf-ad7e-29f5c9e32a38"><rect x="21" y="0" width="191" height="17"></rect></clipPath><text x="21" y="14" style="fill:#202020;font-family:Arial;font-size:14px" clip-path="url(#clip_f795ea6c-fdbc-45cf-ad7e-29f5c9e32a38)">email</text></g><text x="233" y="14" style="fill:#202020;font-family:Arial;font-size:14px" width="80">string</text><text x="334" y="14" width="22" height="14" style="fill:#202020;font-family:Arial;font-size:14px">NN</text></g><g transform="translate(10, 97)"><g transform="translate(0, 0)"><clipPath id="clip_7a7552c6-bd4a-4e0b-9786-14a62259431e"><rect x="21" y="0" width="191" height="17"></rect></clipPath><text x="21" y="14" style="fill:#202020;font-family:Arial;font-size:14px" clip-path="url(#clip_7a7552c6-bd4a-4e0b-9786-14a62259431e)">password</text></g><text x="233" y="14" style="fill:#202020;font-family:Arial;font-size:14px" width="80">string</text><text x="334" y="14" width="22" height="14" style="fill:#202020;font-family:Arial;font-size:14px">NN</text></g><g transform="translate(10, 121)"><g transform="translate(0, 0)"><clipPath id="clip_05bc583e-2b42-45f9-8e3a-b53e538ec54b"><rect x="21" y="0" width="191" height="17"></rect></clipPath><text x="21" y="14" style="fill:#202020;font-family:Arial;font-size:14px" clip-path="url(#clip_05bc583e-2b42-45f9-8e3a-b53e538ec54b)">createdAt</text></g><text x="233" y="14" style="fill:#202020;font-family:Arial;font-size:14px" width="80">date</text><text x="334" y="14" width="22" height="14" style="fill:#202020;font-family:Arial;font-size:14px">NN</text></g></g><rect x="0" y="0" width="380" height="170" style="fill:none;stroke:#e6eaf2"></rect></g><g transform="translate(702.5500000000002, 57.85000000000002)"><rect x="0" y="0" width="380" height="170" style="fill:#fefdfe"></rect><rect x="0" y="0" width="380" height="25" style="fill:#e6eaf2"></rect><text x="10" y="14" style="font-family:&#x27;Arial&#x27;, sans-serif;font-size:14px;fill:#202020">Project</text><g transform="translate(0, 15)"><g transform="translate(10, 25)"><g transform="translate(0, 0)"><clipPath id="clip_fd11b05c-082f-4f4a-a5c6-25673bd9ecbb"><rect x="21" y="0" width="191" height="17"></rect></clipPath><text x="21" y="14" style="fill:#202020;font-family:Arial;font-size:14px" clip-path="url(#clip_fd11b05c-082f-4f4a-a5c6-25673bd9ecbb)">_id</text></g><text x="233" y="14" style="fill:#202020;font-family:Arial;font-size:14px" width="80">objectId</text><text x="334" y="14" width="22" height="14" style="fill:#202020;font-family:Arial;font-size:14px">NN</text></g><g transform="translate(10, 49)"><g transform="translate(0, 0)"><clipPath id="clip_c73cd61d-fa7b-4bd3-bd1c-caab27b23f84"><rect x="21" y="0" width="191" height="17"></rect></clipPath><text x="21" y="14" style="fill:#202020;font-family:Arial;font-size:14px" clip-path="url(#clip_c73cd61d-fa7b-4bd3-bd1c-caab27b23f84)">name</text></g><text x="233" y="14" style="fill:#202020;font-family:Arial;font-size:14px" width="80">string</text><text x="334" y="14" width="22" height="14" style="fill:#202020;font-family:Arial;font-size:14px">NN</text></g><g transform="translate(10, 73)"><g transform="translate(0, 0)"><clipPath id="clip_9d273210-f8ce-43fb-ab7f-d882bba6455b"><rect x="21" y="0" width="191" height="17"></rect></clipPath><text x="21" y="14" style="fill:#202020;font-family:Arial;font-size:14px" clip-path="url(#clip_9d273210-f8ce-43fb-ab7f-d882bba6455b)">URL</text></g><text x="233" y="14" style="fill:#202020;font-family:Arial;font-size:14px" width="80">string</text><text x="334" y="14" width="22" height="14" style="fill:#202020;font-family:Arial;font-size:14px">NN</text></g><g transform="translate(10, 97)"><g transform="translate(0, 0)"><clipPath id="clip_a4406c33-9eba-493b-b524-d34b925ce485"><rect x="21" y="0" width="191" height="17"></rect></clipPath><text x="21" y="14" style="fill:#202020;font-family:Arial;font-size:14px" clip-path="url(#clip_a4406c33-9eba-493b-b524-d34b925ce485)">sitemap</text></g><text x="233" y="14" style="fill:#202020;font-family:Arial;font-size:14px" width="80">string</text><text x="334" y="14" width="22" height="14" style="fill:#202020;font-family:Arial;font-size:14px"></text></g><g transform="translate(10, 121)"><g transform="translate(0, 0)"><clipPath id="clip_2487a838-825a-4b85-b8a2-c58bbf778696"><rect x="21" y="0" width="191" height="17"></rect></clipPath><text x="21" y="14" style="fill:#202020;font-family:Arial;font-size:14px" clip-path="url(#clip_2487a838-825a-4b85-b8a2-c58bbf778696)">userId</text></g><text x="233" y="14" style="fill:#202020;font-family:Arial;font-size:14px" width="80">objectId</text><text x="334" y="14" width="22" height="14" style="fill:#202020;font-family:Arial;font-size:14px">NN</text></g></g><rect x="0" y="0" width="380" height="170" style="fill:none;stroke:#e6eaf2"></rect></g><g transform="translate(137.65000000000026, 286.75000000000006)"><rect x="0" y="0" width="380" height="242" style="fill:#fefdfe"></rect><rect x="0" y="0" width="380" height="25" style="fill:#e6eaf2"></rect><text x="10" y="14" style="font-family:&#x27;Arial&#x27;, sans-serif;font-size:14px;fill:#202020">ScanResult</text><g transform="translate(0, 15)"><g transform="translate(10, 25)"><g transform="translate(0, 0)"><clipPath id="clip_ccdaa866-da41-419d-918d-fb35d110193d"><rect x="21" y="0" width="191" height="17"></rect></clipPath><text x="21" y="14" style="fill:#202020;font-family:Arial;font-size:14px" clip-path="url(#clip_ccdaa866-da41-419d-918d-fb35d110193d)">_id</text></g><text x="233" y="14" style="fill:#202020;font-family:Arial;font-size:14px" width="80">objectId</text><text x="334" y="14" width="22" height="14" style="fill:#202020;font-family:Arial;font-size:14px">NN</text></g><g transform="translate(10, 49)"><g transform="translate(0, 0)"><clipPath id="clip_859119dd-a666-4724-b8f7-db5cc333e925"><rect x="21" y="0" width="191" height="17"></rect></clipPath><text x="21" y="14" style="fill:#202020;font-family:Arial;font-size:14px" clip-path="url(#clip_859119dd-a666-4724-b8f7-db5cc333e925)">scanId</text></g><text x="233" y="14" style="fill:#202020;font-family:Arial;font-size:14px" width="80">objectId</text><text x="334" y="14" width="22" height="14" style="fill:#202020;font-family:Arial;font-size:14px">NN</text></g><g transform="translate(10, 73)"><g transform="translate(0, 0)"><clipPath id="clip_33a7597b-bd16-4a9f-9136-cf94c60a21cb"><rect x="21" y="0" width="191" height="17"></rect></clipPath><text x="21" y="14" style="fill:#202020;font-family:Arial;font-size:14px" clip-path="url(#clip_33a7597b-bd16-4a9f-9136-cf94c60a21cb)">pageURL</text></g><text x="233" y="14" style="fill:#202020;font-family:Arial;font-size:14px" width="80">string</text><text x="334" y="14" width="22" height="14" style="fill:#202020;font-family:Arial;font-size:14px">NN</text></g><g transform="translate(10, 97)"><g transform="translate(0, 0)"><clipPath id="clip_59ff78f7-3b99-4b7d-9f70-5790f1b5e6c6"><rect x="21" y="0" width="191" height="17"></rect></clipPath><text x="21" y="14" style="fill:#202020;font-family:Arial;font-size:14px" clip-path="url(#clip_59ff78f7-3b99-4b7d-9f70-5790f1b5e6c6)">errorCount</text></g><text x="233" y="14" style="fill:#202020;font-family:Arial;font-size:14px" width="80">int</text><text x="334" y="14" width="22" height="14" style="fill:#202020;font-family:Arial;font-size:14px">NN</text></g><g transform="translate(10, 121)"><g transform="translate(0, 0)"><clipPath id="clip_63fb9e29-221e-465c-be2e-c216204aeac4"><rect x="21" y="0" width="191" height="17"></rect></clipPath><text x="21" y="14" style="fill:#202020;font-family:Arial;font-size:14px" clip-path="url(#clip_63fb9e29-221e-465c-be2e-c216204aeac4)">warnings</text></g><text x="233" y="14" style="fill:#202020;font-family:Arial;font-size:14px" width="80">int</text><text x="334" y="14" width="22" height="14" style="fill:#202020;font-family:Arial;font-size:14px">NN</text></g><g transform="translate(10, 145)"><g transform="translate(0, 0)"><clipPath id="clip_c0f85e91-0f3c-410d-82ca-1b52ca17b997"><rect x="21" y="0" width="191" height="17"></rect></clipPath><text x="21" y="14" style="fill:#202020;font-family:Arial;font-size:14px" clip-path="url(#clip_c0f85e91-0f3c-410d-82ca-1b52ca17b997)">violations</text></g><text x="233" y="14" style="fill:#202020;font-family:Arial;font-size:14px" width="80">javascript</text><text x="334" y="14" width="22" height="14" style="fill:#202020;font-family:Arial;font-size:14px">NN</text></g><g transform="translate(10, 169)"><g transform="translate(0, 0)"><clipPath id="clip_95425b2c-716e-4fb1-aa91-9847ce834c81"><rect x="21" y="0" width="191" height="17"></rect></clipPath><text x="21" y="14" style="fill:#202020;font-family:Arial;font-size:14px" clip-path="url(#clip_95425b2c-716e-4fb1-aa91-9847ce834c81)">screenshotURL</text></g><text x="233" y="14" style="fill:#202020;font-family:Arial;font-size:14px" width="80">string</text><text x="334" y="14" width="22" height="14" style="fill:#202020;font-family:Arial;font-size:14px"></text></g><g transform="translate(10, 193)"><g transform="translate(0, 0)"><clipPath id="clip_2b7c8305-f7dc-4ece-8ba7-6709a6d0010d"><rect x="21" y="0" width="191" height="17"></rect></clipPath><text x="21" y="14" style="fill:#202020;font-family:Arial;font-size:14px" clip-path="url(#clip_2b7c8305-f7dc-4ece-8ba7-6709a6d0010d)">createdAt</text></g><text x="233" y="14" style="fill:#202020;font-family:Arial;font-size:14px" width="80">date</text><text x="334" y="14" width="22" height="14" style="fill:#202020;font-family:Arial;font-size:14px">NN</text></g></g><rect x="0" y="0" width="380" height="242" style="fill:none;stroke:#e6eaf2"></rect></g><g transform="translate(653.1999999999999, 286.75000000000006)"><rect x="0" y="0" width="380" height="194" style="fill:#fefdfe"></rect><rect x="0" y="0" width="380" height="25" style="fill:#e6eaf2"></rect><text x="10" y="14" style="font-family:&#x27;Arial&#x27;, sans-serif;font-size:14px;fill:#202020">Scan</text><g transform="translate(0, 15)"><g transform="translate(10, 25)"><g transform="translate(0, 0)"><clipPath id="clip_5b9a7c1b-7dd0-432c-ba5a-1b16aecd7978"><rect x="21" y="0" width="191" height="17"></rect></clipPath><text x="21" y="14" style="fill:#202020;font-family:Arial;font-size:14px" clip-path="url(#clip_5b9a7c1b-7dd0-432c-ba5a-1b16aecd7978)">_id</text></g><text x="233" y="14" style="fill:#202020;font-family:Arial;font-size:14px" width="80">objectId</text><text x="334" y="14" width="22" height="14" style="fill:#202020;font-family:Arial;font-size:14px">NN</text></g><g transform="translate(10, 49)"><g transform="translate(0, 0)"><clipPath id="clip_c40ebdeb-92d7-4c40-8ced-ebd2b590742b"><rect x="21" y="0" width="191" height="17"></rect></clipPath><text x="21" y="14" style="fill:#202020;font-family:Arial;font-size:14px" clip-path="url(#clip_c40ebdeb-92d7-4c40-8ced-ebd2b590742b)">status</text></g><text x="233" y="14" style="fill:#202020;font-family:Arial;font-size:14px" width="80">enum</text><text x="334" y="14" width="22" height="14" style="fill:#202020;font-family:Arial;font-size:14px">NN</text></g><g transform="translate(10, 73)"><g transform="translate(0, 0)"><clipPath id="clip_23ed6af4-d522-464a-b2a9-00a452661a41"><rect x="21" y="0" width="191" height="17"></rect></clipPath><text x="21" y="14" style="fill:#202020;font-family:Arial;font-size:14px" clip-path="url(#clip_23ed6af4-d522-464a-b2a9-00a452661a41)">projectId</text></g><text x="233" y="14" style="fill:#202020;font-family:Arial;font-size:14px" width="80">objectId</text><text x="334" y="14" width="22" height="14" style="fill:#202020;font-family:Arial;font-size:14px">NN</text></g><g transform="translate(10, 97)"><g transform="translate(0, 0)"><clipPath id="clip_2d77f423-02f8-48e5-99a1-b09377d25da8"><rect x="21" y="0" width="191" height="17"></rect></clipPath><text x="21" y="14" style="fill:#202020;font-family:Arial;font-size:14px" clip-path="url(#clip_2d77f423-02f8-48e5-99a1-b09377d25da8)">results</text></g><text x="233" y="14" style="fill:#202020;font-family:Arial;font-size:14px" width="80">array</text><text x="334" y="14" width="22" height="14" style="fill:#202020;font-family:Arial;font-size:14px">NN</text></g><g transform="translate(10, 121)"><g transform="translate(0, 0)"><clipPath id="clip_fe28abe4-e524-4853-8b13-9f07a0653c6b"><rect x="21" y="0" width="191" height="17"></rect></clipPath><text x="21" y="14" style="fill:#202020;font-family:Arial;font-size:14px" clip-path="url(#clip_fe28abe4-e524-4853-8b13-9f07a0653c6b)">createdAt</text></g><text x="233" y="14" style="fill:#202020;font-family:Arial;font-size:14px" width="80">date</text><text x="334" y="14" width="22" height="14" style="fill:#202020;font-family:Arial;font-size:14px">NN</text></g><g transform="translate(10, 145)"><g transform="translate(0, 0)"><clipPath id="clip_c25b22e2-d4e4-4d68-aaf2-9c68b3c22767"><rect x="21" y="0" width="191" height="17"></rect></clipPath><text x="21" y="14" style="fill:#202020;font-family:Arial;font-size:14px" clip-path="url(#clip_c25b22e2-d4e4-4d68-aaf2-9c68b3c22767)">score</text></g><text x="233" y="14" style="fill:#202020;font-family:Arial;font-size:14px" width="80">int</text><text x="334" y="14" width="22" height="14" style="fill:#202020;font-family:Arial;font-size:14px">NN</text></g></g><rect x="0" y="0" width="380" height="194" style="fill:none;stroke:#e6eaf2"></rect></g><g><svg><defs><filter id="table_glow"><feGaussianBlur stdDeviation="3.5" result="coloredBlur"></feGaussianBlur><feMerge><feMergeNode in="coloredBlur"></feMergeNode><feMergeNode in="SourceGraphic"></feMergeNode></feMerge></filter></defs><line x1="514.5" y1="108.90000000000006" x2="692.5500000000002" y2="107.85000000000002" stroke="#ecad5a" stroke-width="2"></line><g><line x1="692.5500000000002" y1="107.85000000000002" x2="702.5500000000002" y2="107.85000000000002" stroke="#ecad5a" stroke-width="2"></line><line x1="692.5500000000002" y1="107.85000000000002" x2="702.5500000000002" y2="102.85000000000002" stroke="#ecad5a" stroke-width="2"></line><line x1="692.5500000000002" y1="107.85000000000002" x2="702.5500000000002" y2="112.85000000000002" stroke="#ecad5a" stroke-width="2"></line></g></svg><svg><defs><filter id="table_glow"><feGaussianBlur stdDeviation="3.5" result="coloredBlur"></feGaussianBlur><feMerge><feMergeNode in="coloredBlur"></feMergeNode><feMergeNode in="SourceGraphic"></feMergeNode></feMerge></filter></defs><line x1="653.1999999999999" y1="336.75000000000006" x2="527.6500000000003" y2="336.75000000000006" stroke="#ecad5a" stroke-width="2"></line><g><line x1="527.6500000000003" y1="336.75000000000006" x2="517.6500000000003" y2="336.75000000000006" stroke="#ecad5a" stroke-width="2"></line><line x1="527.6500000000003" y1="336.75000000000006" x2="517.6500000000003" y2="331.75000000000006" stroke="#ecad5a" stroke-width="2"></line><line x1="527.6500000000003" y1="336.75000000000006" x2="517.6500000000003" y2="341.75000000000006" stroke="#ecad5a" stroke-width="2"></line></g></svg><svg><defs><filter id="table_glow"><feGaussianBlur stdDeviation="3.5" result="coloredBlur"></feGaussianBlur><feMerge><feMergeNode in="coloredBlur"></feMergeNode><feMergeNode in="SourceGraphic"></feMergeNode></feMerge></filter></defs><path d="
M 1082.5500000000002 107.85000000000002
H 1102.5500000000002
V 336.75000000000006
H 1043.1999999999998
" fill="none" stroke="#ecad5a" stroke-width="2"></path><g><line x1="1043.1999999999998" y1="336.75000000000006" x2="1033.1999999999998" y2="336.75000000000006" stroke="#ecad5a" stroke-width="2"></line><line x1="1043.1999999999998" y1="336.75000000000006" x2="1033.1999999999998" y2="331.75000000000006" stroke="#ecad5a" stroke-width="2"></line><line x1="1043.1999999999998" y1="336.75000000000006" x2="1033.1999999999998" y2="341.75000000000006" stroke="#ecad5a" stroke-width="2"></line></g></svg></g></svg>